<svg width="598" height="532" viewBox="0 0 598 532" fill="none" xmlns="http://www.w3.org/2000/svg">
<path d="M515.21 355.052C516.25 353.742 517.26 352.422 518.29 351.102H400.94V156.402H595.64V186.242C597.96 168.402 597.84 151.702 595.64 136.242V152.452H400.94V12.2717C399.17 12.8117 397.42 13.3817 395.68 13.9817V152.452H200.98V8.16174C199.25 7.61174 197.5 7.09174 195.72 6.59174V152.452H1.02012V132.162C-0.309876 144.302 -0.369876 157.182 1.02012 170.762V156.402H195.72V351.102H87.7001C88.7501 352.422 89.8101 353.732 90.8701 355.052H198.34V461.642C200.08 463.042 201.85 464.412 203.6 465.792V355.052H398.3V467.442C400.07 466.102 401.81 464.752 403.56 463.412V355.052H515.21ZM395.68 351.102H200.98V156.402H395.68V351.102Z" fill="white"/>
<path d="M195.72 152.452V6.59172C181.63 2.63172 165.9 0.331728 148.41 0.021728C81.33 -1.17827 10.3 47.3817 1.02002 132.162V152.452H195.72Z" fill="#A50121"/>
<path d="M395.68 152.452V13.9817C343.95 31.9117 305.76 78.2417 294.25 121.282C284.73 69.9717 256.04 25.7917 200.98 8.16174V152.452H395.68Z" fill="#C51F3B"/>
<path d="M595.64 152.452V136.242C584.21 55.9017 516.73 8.8317 445.61 6.3717C429.95 5.8417 414.98 8.01171 400.94 12.2717V152.452H595.64Z" fill="#FFCDCD"/>
<path d="M195.72 156.402H1.02002V170.762C5.17002 211.192 22.24 257.862 57.32 309.702C66.98 324.002 77.13 337.792 87.71 351.102H195.72V156.402Z" fill="#C51F3B"/>
<path d="M395.68 156.402H200.98V351.102H395.68V156.402Z" fill="#FF0101"/>
<path d="M400.94 156.402V351.102H518.29C532.02 333.452 544.38 315.282 555.24 296.572C578.67 256.192 591.34 219.242 595.64 186.232V156.392H400.94V156.402Z" fill="#FB617F"/>
<path d="M90.8801 355.052C122.97 394.792 159.04 430.182 198.35 461.642V355.052H90.8801Z" fill="#C18181"/>
<path d="M203.61 355.052V465.802C234.32 489.942 266.94 511.752 301.13 531.422C336.08 511.342 368.55 490.012 398.32 467.452V355.052H203.61Z" fill="#65010B"/>
<path d="M515.21 355.052H403.57V463.412C446.99 429.932 484.48 393.792 515.21 355.052Z" fill="#DD153D"/>
</svg>
