<svg width="449" height="398" viewBox="0 0 449 398" fill="none" xmlns="http://www.w3.org/2000/svg">
<path d="M55.1326 247.444L375.433 279.874C375.693 279.564 375.973 279.254 376.233 278.944L54.3127 246.354C54.5827 246.714 54.8526 247.074 55.1326 247.444Z" fill="white"/>
<path d="M10.2726 168.844L422.683 210.594C422.853 210.274 423.033 209.954 423.193 209.634L9.89264 167.794C10.0226 168.144 10.1426 168.494 10.2726 168.844Z" fill="white"/>
<path d="M108.673 0.84418C83.6326 1.02418 58.0926 10.4542 38.0726 27.7142L201.893 44.3042C183.793 18.0442 153.763 0.51418 108.673 0.84418Z" fill="#E40303"/>
<path d="M332.023 0.0042113C293.263 -0.345789 260.633 21.1642 240.393 48.2042L439.493 68.3642C420.823 24.7242 377.103 0.434211 332.023 0.0042113Z" fill="#E40303"/>
<path d="M220.503 89.1742C217.433 74.6542 212.313 60.9442 204.873 48.8642L33.8526 31.5442C17.6226 47.0742 5.64263 68.1442 1.54263 93.8942L447.253 139.014C450.953 113.794 448.403 91.6042 441.293 72.7942L237.543 52.1642C229.323 64.0642 223.473 76.8342 220.503 89.1742Z" fill="#FF8C00"/>
<path d="M201.893 44.3041L38.0726 27.7141C36.6326 28.9541 35.2326 30.2341 33.8526 31.5441L204.873 48.8641C203.923 47.3141 202.923 45.7941 201.893 44.3041Z" fill="#FF8C00"/>
<path d="M240.393 48.2041C239.413 49.5141 238.463 50.8441 237.533 52.1741L441.283 72.8041C440.713 71.3041 440.113 69.8241 439.483 68.3641L240.393 48.2041Z" fill="#FF8C00"/>
<path d="M1.08264 97.0142C-1.66736 117.804 0.66265 141.534 9.90265 167.784L423.203 209.624C435.823 185.264 443.363 162.714 446.773 142.134L1.08264 97.0142Z" fill="#FFED00"/>
<path d="M1.08264 97.0143L446.763 142.134C446.933 141.084 447.093 140.054 447.243 139.014L1.53265 93.8943C1.38265 94.9343 1.22264 95.9743 1.08264 97.0143Z" fill="#FFED00"/>
<path d="M46.0927 235.174C48.7826 238.954 51.5327 242.664 54.3127 246.344L376.233 278.934C393.263 258.804 407.873 237.794 419.863 215.904C420.833 214.124 421.773 212.354 422.693 210.594L10.2827 168.844C17.6627 189.474 29.3027 211.654 46.0927 235.174Z" fill="#008026"/>
<path d="M124.533 321.814L313.003 340.894C336.373 321.574 357.253 301.224 375.423 279.874L55.1227 247.444C75.9827 274.864 99.2527 299.574 124.533 321.814Z" fill="#004DFF"/>
<path d="M233.423 397.104C259.913 380.984 284.423 363.934 306.783 345.964L132.043 328.274C163.163 354.654 197.193 377.454 233.423 397.104Z" fill="#750787"/>
<path d="M306.773 345.964C308.873 344.284 310.943 342.594 313.003 340.894L124.533 321.814C127.013 323.994 129.513 326.144 132.033 328.274L306.773 345.964Z" fill="#750787"/>
</svg>
